<?xml version="1.0" standalone="no"?>
<!DOCTYPE svg PUBLIC "-//W3C//DTD SVG 20010904//EN"
 "http://www.w3.org/TR/2001/REC-SVG-20010904/DTD/svg10.dtd">
<svg version="1.0" xmlns="http://www.w3.org/2000/svg"
 width="38.000000pt" height="33.000000pt" viewBox="0 0 38.000000 33.000000"
 preserveAspectRatio="xMidYMid meet">

<g transform="translate(0.000000,33.000000) scale(0.100000,-0.100000)"
fill="#ff0707" stroke="none">
<path d="M115 306 c-16 -8 -39 -20 -49 -28 -18 -14 -17 -16 14 -27 56 -19 132
-23 183 -9 27 7 49 18 49 23 1 6 -18 20 -42 33 -50 25 -110 28 -155 8z"/>
<path d="M21 224 c-31 -68 -1 -157 66 -196 l31 -19 12 58 c6 32 13 69 16 83 4
20 -1 27 -26 39 -17 7 -44 24 -59 37 l-28 23 -12 -25z"/>
<path d="M309 221 c-13 -10 -38 -25 -55 -34 l-31 -16 16 -75 c9 -41 19 -77 22
-80 3 -3 24 10 47 30 51 43 68 94 52 154 -12 45 -18 48 -51 21z"/>
</g>
</svg>
