<?xml version="1.0" standalone="no"?>
<!DOCTYPE svg PUBLIC "-//W3C//DTD SVG 20010904//EN"
 "http://www.w3.org/TR/2001/REC-SVG-20010904/DTD/svg10.dtd">
<svg version="1.0" xmlns="http://www.w3.org/2000/svg"
 width="150.000000pt" height="25.000000pt" viewBox="0 0 198.000000 33.000000"
 preserveAspectRatio="xMidYMid meet">

<g transform="translate(0.000000,33.000000) scale(0.100000,-0.100000)"
fill="#ffffff" stroke="none">
<path d="M115 306 c-16 -8 -39 -20 -49 -28 -18 -14 -17 -16 14 -27 56 -19 132
-23 183 -9 27 7 49 18 49 23 1 6 -18 20 -42 33 -50 25 -110 28 -155 8z"/>
<path d="M21 224 c-31 -68 -1 -157 66 -196 l31 -19 12 58 c6 32 13 69 16 83 4
20 -1 27 -26 39 -17 7 -44 24 -59 37 l-28 23 -12 -25z"/>
<path d="M467 244 c-15 -16 9 -24 68 -24 l64 0 3 -102 c3 -98 4 -103 25 -106
22 -3 22 0 25 100 l3 103 68 3 c51 2 67 6 67 17 0 13 -26 15 -158 15 -87 0
-162 -3 -165 -6z"/>
<path d="M838 244 c-5 -4 -8 -58 -8 -121 0 -106 1 -113 20 -113 17 0 20 7 20
45 0 45 0 45 34 45 23 0 60 -15 110 -45 74 -43 116 -56 116 -35 0 5 -26 24
-57 42 -43 24 -53 34 -38 36 74 11 95 28 95 76 0 59 -25 71 -164 74 -66 2
-124 0 -128 -4z m240 -38 c16 -9 15 -49 0 -64 -8 -8 -47 -12 -110 -12 l-98 0
0 38 c0 21 2 41 4 43 7 7 192 2 204 -5z"/>
<path d="M1161 238 c0 -7 32 -39 70 -71 68 -58 69 -59 69 -108 0 -42 3 -49 20
-49 17 0 20 7 20 49 0 48 1 49 75 111 41 34 72 66 69 71 -12 19 -40 6 -100
-46 l-62 -55 -64 55 c-60 53 -99 69 -97 43z"/>
<path d="M1527 243 c-4 -3 -7 -58 -7 -120 0 -113 0 -114 23 -111 20 3 22 8 23
80 1 43 4 79 6 80 2 2 38 -34 78 -79 50 -57 81 -83 96 -83 15 0 48 28 103 88
l80 87 1 -88 c0 -84 1 -88 21 -85 19 3 21 9 21 113 0 168 -5 167 -180 -28
l-43 -48 -72 78 c-40 43 -82 88 -94 100 -22 23 -44 29 -56 16z"/>
<path d="M309 221 c-13 -10 -38 -25 -55 -34 l-31 -16 16 -75 c9 -41 19 -77 22
-80 3 -3 24 10 47 30 51 43 68 94 52 154 -12 45 -18 48 -51 21z"/>
</g>
</svg>
